<svg xmlns="http://www.w3.org/2000/svg">
    <defs>
      <symbol id="icon-alert-circle" fill="none" stroke-width="2" stroke-linecap="round" stroke-linejoin="round">
        <circle cx="12" cy="12" r="10"></circle>
        <line x1="12" y1="8" x2="12" y2="12"></line>
        <line x1="12" y1="16" x2="12" y2="16"></line>
      </symbol>
      <symbol id="icon-alert-octagon" fill="none" stroke-width="2" stroke-linecap="round" stroke-linejoin="round">
        <polygon points="7.86 2 16.14 2 22 7.86 22 16.14 16.14 22 7.86 22 2 16.14 2 7.86 7.86 2"></polygon>
        <line x1="12" y1="8" x2="12" y2="12"></line>
        <line x1="12" y1="16" x2="12" y2="16"></line>
      </symbol>
      <symbol id="icon-alert-trangle" fill="none" stroke-width="2" stroke-linecap="round" stroke-linejoin="round">
        <path d="M10.29 3.86L1.82 18a2 2 0 0 0 1.71 3h16.94a2 2 0 0 0 1.71-3L13.71 3.86a2 2 0 0 0-3.42 0z"></path>
        <line x1="12" y1="9" x2="12" y2="13"></line>
        <line x1="12" y1="17" x2="12" y2="17"></line>
      </symbol>
      <symbol id="icon-help" fill="none" stroke-width="2" stroke-linecap="round" stroke-linejoin="round">
        <circle cx="12" cy="12" r="10"></circle>
        <path d="M9.09 9a3 3 0 0 1 5.83 1c0 2-3 3-3 3"></path>
        <line x1="12" y1="17" x2="12" y2="17"></line>
      </symbol>
      <symbol id="icon-info" fill="none" stroke-width="2" stroke-linecap="round" stroke-linejoin="round">
        <circle cx="12" cy="12" r="10"></circle>
        <line x1="12" y1="16" x2="12" y2="12"></line>
        <line x1="12" y1="8" x2="12" y2="8"></line>
      </symbol>
    </defs>
</svg>